<?xml version="1.0" encoding="utf-8"?>
<!-- Generator: Adobe Illustrator 27.3.1, SVG Export Plug-In . SVG Version: 6.00 Build 0)  -->
<svg version="1.1" id="Capa_1" xmlns="http://www.w3.org/2000/svg" xmlns:xlink="http://www.w3.org/1999/xlink" x="0px" y="0px"
	 viewBox="0 0 1080 1920" style="enable-background:new 0 0 1080 1920;" xml:space="preserve">
<style type="text/css">
	.st0{fill:#C89765;}
	.st1{fill:#FFFFFF;}
</style>
<g>
	<rect x="240" y="1100.3" class="st0" width="597.2" height="79.9"/>
	<g>
		<path class="st1" d="M287.3,900.1c-0.4,0-0.6-0.2-0.6-0.6v-30.2c0-0.4,0.2-0.6,0.6-0.6h14.9c0.4,0,0.6,0.2,0.6,0.6v1.3
			c0,0.4-0.2,0.6-0.6,0.6h-12.7v11.4h12.1c0.4,0,0.6,0.2,0.6,0.6v1.3c0,0.4-0.2,0.6-0.6,0.6h-12.1v12.5h12.8c0.4,0,0.6,0.2,0.6,0.6
			v1.3c0,0.4-0.2,0.6-0.6,0.6H287.3z"/>
		<path class="st1" d="M310.5,900.1c-0.4,0-0.5-0.2-0.5-0.6v-20.8c0-0.4,0.2-0.6,0.5-0.6h1.4c0.4,0,0.6,0.2,0.6,0.7l0.1,2.9
			c1.5-2.7,4-4.1,7.4-4.1c2.5,0,4.4,0.8,5.9,2.3c1.5,1.5,2.2,3.8,2.2,6.6v13c0,0.4-0.2,0.6-0.6,0.6H326c-0.4,0-0.5-0.2-0.5-0.6
			v-12.9c0-2-0.5-3.6-1.6-4.8c-1.1-1.2-2.5-1.8-4.4-1.8c-2,0-3.6,0.6-4.8,1.8c-1.3,1.2-1.9,2.8-1.9,4.8v12.9c0,0.4-0.2,0.6-0.6,0.6
			H310.5z"/>
		<path class="st1" d="M355.6,900.6c-4,0-6.9-1.7-8.7-5l-0.1,3.8c0,0.4-0.2,0.6-0.5,0.6h-1.5c-0.4,0-0.5-0.2-0.5-0.6v-30.9
			c0-0.4,0.2-0.6,0.5-0.6h1.6c0.4,0,0.6,0.2,0.6,0.6v13.9c0.8-1.6,2-2.8,3.5-3.7c1.5-0.9,3.2-1.3,5.2-1.3c3.2,0,5.8,1.1,7.9,3.3
			c2,2.2,3.1,5,3.1,8.3s-1,6.1-3.1,8.3C361.4,899.5,358.8,900.6,355.6,900.6z M355.3,898c2.5,0,4.6-0.8,6.2-2.5
			c1.6-1.7,2.4-3.8,2.4-6.5c0-2.7-0.8-4.8-2.4-6.5c-1.6-1.7-3.7-2.5-6.2-2.5c-2.5,0-4.5,0.8-6.1,2.5c-1.6,1.7-2.3,3.9-2.3,6.6
			c0,2.7,0.8,4.8,2.3,6.5C350.8,897.2,352.8,898,355.3,898z"/>
		<path class="st1" d="M373,900.1c-0.4,0-0.5-0.2-0.5-0.6v-20.8c0-0.4,0.2-0.6,0.5-0.6h1.4c0.4,0,0.6,0.2,0.6,0.7l0.1,2.4
			c1-2.4,2.7-3.6,5.1-3.6c1,0,1.6,0.1,2,0.4c0.2,0.2,0.4,0.4,0.4,0.8v1.1c0,0.4-0.3,0.6-0.8,0.4c-0.4-0.1-0.9-0.2-1.6-0.2
			c-1.3,0-2.3,0.4-3.1,1.1c-0.8,0.7-1.3,1.5-1.6,2.4c-0.3,0.8-0.4,1.7-0.4,2.7v13.3c0,0.4-0.2,0.6-0.6,0.6H373z"/>
		<path class="st1" d="M397.4,900.6c-3.5,0-6.3-1.1-8.4-3.4c-2.1-2.2-3.2-5-3.2-8.3c0-3.3,1-6,3.1-8.2c2.1-2.2,4.7-3.3,7.9-3.3
			c3.1,0,5.6,1,7.5,3.1c1.9,2.1,2.8,4.5,2.8,7.3c0,0.8-0.1,1.4-0.3,1.7c-0.2,0.3-0.6,0.4-1.2,0.4h-17.2c0.2,2.4,1.1,4.4,2.7,6
			c1.6,1.5,3.8,2.3,6.5,2.3c2.4,0,4.6-0.7,6.6-2.2c0.2-0.2,0.5-0.2,0.6,0l0.6,0.8c0.2,0.3,0.1,0.6-0.2,0.9
			C403.3,899.7,400.6,900.6,397.4,900.6z M388.4,887.8h16.2c-0.1-2.3-0.8-4.2-2.2-5.7c-1.4-1.5-3.3-2.2-5.7-2.2
			c-2.3,0-4.3,0.7-5.8,2.1C389.5,883.5,388.6,885.4,388.4,887.8z"/>
		<path class="st1" d="M419.2,900.1c-0.4,0-0.7-0.2-0.8-0.5l-8.2-20.7c-0.2-0.5,0-0.8,0.5-0.8h1.5c0.3,0,0.6,0.2,0.7,0.5l7.1,18.5
			l7.1-18.5c0.1-0.4,0.4-0.5,0.7-0.5h1.5c0.5,0,0.7,0.3,0.5,0.8l-8.2,20.7c-0.1,0.4-0.4,0.5-0.8,0.5H419.2z"/>
		<path class="st1" d="M444.7,900.6c-3.5,0-6.3-1.1-8.4-3.4c-2.1-2.2-3.2-5-3.2-8.3c0-3.3,1-6,3.1-8.2c2.1-2.2,4.7-3.3,7.9-3.3
			c3.1,0,5.6,1,7.5,3.1c1.9,2.1,2.8,4.5,2.8,7.3c0,0.8-0.1,1.4-0.3,1.7c-0.2,0.3-0.6,0.4-1.2,0.4h-17.2c0.2,2.4,1.1,4.4,2.7,6
			c1.6,1.5,3.8,2.3,6.5,2.3c2.4,0,4.6-0.7,6.6-2.2c0.2-0.2,0.5-0.2,0.6,0l0.6,0.8c0.2,0.3,0.1,0.6-0.2,0.9
			C450.6,899.7,447.9,900.6,444.7,900.6z M435.7,887.8H452c-0.1-2.3-0.8-4.2-2.2-5.7c-1.4-1.5-3.3-2.2-5.7-2.2
			c-2.3,0-4.3,0.7-5.8,2.1C436.8,883.5,435.9,885.4,435.7,887.8z"/>
		<path class="st1" d="M469.9,900.1c-0.4,0-0.5-0.2-0.5-0.6v-20.8c0-0.4,0.2-0.6,0.5-0.6h1.4c0.4,0,0.6,0.2,0.6,0.7l0.1,2.4
			c1-2.4,2.7-3.6,5.1-3.6c1,0,1.6,0.1,2,0.4c0.2,0.2,0.4,0.4,0.4,0.8v1.1c0,0.4-0.3,0.6-0.8,0.4c-0.4-0.1-0.9-0.2-1.6-0.2
			c-1.3,0-2.3,0.4-3.1,1.1c-0.8,0.7-1.3,1.5-1.6,2.4c-0.3,0.8-0.4,1.7-0.4,2.7v13.3c0,0.4-0.2,0.6-0.6,0.6H469.9z"/>
		<path class="st1" d="M494.3,900.6c-3.5,0-6.3-1.1-8.4-3.4c-2.1-2.2-3.2-5-3.2-8.3c0-3.3,1-6,3.1-8.2c2.1-2.2,4.7-3.3,7.9-3.3
			c3.1,0,5.6,1,7.5,3.1c1.9,2.1,2.8,4.5,2.8,7.3c0,0.8-0.1,1.4-0.3,1.7c-0.2,0.3-0.6,0.4-1.2,0.4h-17.2c0.2,2.4,1.1,4.4,2.7,6
			c1.6,1.5,3.8,2.3,6.5,2.3c2.4,0,4.6-0.7,6.6-2.2c0.2-0.2,0.5-0.2,0.6,0l0.6,0.8c0.2,0.3,0.1,0.6-0.2,0.9
			C500.2,899.7,497.5,900.6,494.3,900.6z M485.3,887.8h16.2c-0.1-2.3-0.8-4.2-2.2-5.7c-1.4-1.5-3.3-2.2-5.7-2.2
			c-2.3,0-4.3,0.7-5.8,2.1C486.4,883.5,485.5,885.4,485.3,887.8z"/>
		<path class="st1" d="M520.2,900.6c-3.2,0-6-1.1-8.1-3.3c-2.2-2.2-3.3-5-3.3-8.3c0-3.3,1.1-6.1,3.3-8.3c2.2-2.2,4.9-3.3,8.2-3.3
			c3.4,0,6.2,1.2,8.2,3.6c0.3,0.4,0.3,0.7,0.1,0.9l-0.9,0.8c-0.3,0.4-0.7,0.3-1,0c-1.7-1.8-3.8-2.7-6.3-2.7c-2.6,0-4.7,0.8-6.4,2.5
			c-1.7,1.7-2.5,3.9-2.5,6.5c0,2.6,0.8,4.8,2.5,6.5c1.7,1.7,3.8,2.5,6.4,2.5c2.5,0,4.6-0.9,6.3-2.7c0.4-0.4,0.7-0.5,1.1-0.1l0.9,0.9
			c0.2,0.2,0.2,0.5-0.1,0.9C526.5,899.4,523.7,900.6,520.2,900.6z"/>
		<path class="st1" d="M536.1,872c-0.5,0-0.9-0.2-1.3-0.5c-0.3-0.4-0.5-0.8-0.5-1.3c0-0.5,0.2-0.9,0.5-1.3c0.3-0.4,0.8-0.5,1.3-0.5
			c0.5,0,0.9,0.2,1.2,0.5c0.3,0.3,0.5,0.8,0.5,1.3c0,0.5-0.2,0.9-0.5,1.3C537,871.8,536.5,872,536.1,872z M535.3,900.1
			c-0.4,0-0.5-0.2-0.5-0.6v-20.8c0-0.4,0.2-0.6,0.5-0.6h1.6c0.4,0,0.5,0.2,0.5,0.6v20.8c0,0.4-0.2,0.6-0.5,0.6H535.3z"/>
		<path class="st1" d="M555.9,900.6c-4,0-6.9-1.7-8.7-5l-0.1,3.8c0,0.4-0.2,0.6-0.5,0.6H545c-0.4,0-0.5-0.2-0.5-0.6v-30.9
			c0-0.4,0.2-0.6,0.5-0.6h1.6c0.4,0,0.6,0.2,0.6,0.6v13.9c0.8-1.6,2-2.8,3.5-3.7c1.5-0.9,3.2-1.3,5.2-1.3c3.2,0,5.8,1.1,7.9,3.3
			c2,2.2,3.1,5,3.1,8.3s-1,6.1-3.1,8.3C561.7,899.5,559.1,900.6,555.9,900.6z M555.5,898c2.5,0,4.6-0.8,6.2-2.5
			c1.6-1.7,2.4-3.8,2.4-6.5c0-2.7-0.8-4.8-2.4-6.5c-1.6-1.7-3.7-2.5-6.2-2.5c-2.5,0-4.5,0.8-6.1,2.5c-1.6,1.7-2.3,3.9-2.3,6.6
			c0,2.7,0.8,4.8,2.3,6.5C551,897.2,553.1,898,555.5,898z"/>
		<path class="st1" d="M574.1,872c-0.5,0-0.9-0.2-1.3-0.5c-0.3-0.4-0.5-0.8-0.5-1.3c0-0.5,0.2-0.9,0.5-1.3c0.3-0.4,0.8-0.5,1.3-0.5
			c0.5,0,0.9,0.2,1.2,0.5c0.3,0.3,0.5,0.8,0.5,1.3c0,0.5-0.2,0.9-0.5,1.3C575,871.8,574.6,872,574.1,872z M573.3,900.1
			c-0.4,0-0.5-0.2-0.5-0.6v-20.8c0-0.4,0.2-0.6,0.5-0.6h1.6c0.4,0,0.5,0.2,0.5,0.6v20.8c0,0.4-0.2,0.6-0.5,0.6H573.3z"/>
		<path class="st1" d="M583,900.1c-0.4,0-0.5-0.2-0.5-0.6v-20.8c0-0.4,0.2-0.6,0.5-0.6h1.4c0.4,0,0.6,0.2,0.6,0.7l0.1,2.4
			c1-2.4,2.7-3.6,5.1-3.6c1,0,1.6,0.1,2,0.4c0.2,0.2,0.4,0.4,0.4,0.8v1.1c0,0.4-0.3,0.6-0.8,0.4c-0.4-0.1-0.9-0.2-1.6-0.2
			c-1.3,0-2.3,0.4-3.1,1.1c-0.8,0.7-1.3,1.5-1.6,2.4c-0.3,0.8-0.4,1.7-0.4,2.7v13.3c0,0.4-0.2,0.6-0.6,0.6H583z"/>
		<path class="st1" d="M606.7,900.6c-3.2,0-5.8-1.1-7.9-3.3c-2-2.2-3.1-4.9-3.1-8.3s1-6.1,3.1-8.3c2-2.2,4.7-3.3,7.9-3.3
			c2,0,3.7,0.4,5.2,1.3c1.5,0.9,2.6,2.1,3.5,3.7l0.1-3.9c0-0.4,0.2-0.6,0.6-0.6h1.4c0.4,0,0.6,0.2,0.6,0.6v20.8
			c0,0.4-0.2,0.6-0.6,0.6h-1.4c-0.4,0-0.6-0.2-0.6-0.6l-0.1-3.8C613.7,898.9,610.8,900.6,606.7,900.6z M607,898
			c2.5,0,4.5-0.8,6.1-2.5c1.6-1.6,2.3-3.8,2.3-6.5c0-2.7-0.8-4.9-2.3-6.6c-1.6-1.7-3.6-2.5-6.1-2.5c-2.5,0-4.6,0.8-6.2,2.5
			s-2.4,3.8-2.4,6.5c0,2.7,0.8,4.8,2.4,6.5C602.4,897.2,604.5,898,607,898z M606.8,875c-0.5,0-0.6-0.2-0.4-0.7l2.4-5.2
			c0.2-0.4,0.4-0.5,0.7-0.5h1.6c0.4,0,0.6,0.2,0.4,0.7l-2.4,5.2c-0.1,0.4-0.3,0.5-0.7,0.5H606.8z"/>
		<path class="st1" d="M631.5,900.6c-2.9,0-5.2-1.1-7-3.2c-0.3-0.4-0.3-0.7-0.1-1.1l0.5-0.7c0.3-0.4,0.6-0.4,1,0
			c1.6,1.7,3.4,2.6,5.5,2.6c1.4,0,2.6-0.3,3.5-1c0.9-0.7,1.3-1.6,1.3-2.8c0-1-0.3-1.9-0.9-2.5s-1.5-1.2-2.7-1.7l-2.6-1.1
			c-1.6-0.7-2.8-1.4-3.7-2.3c-0.9-0.9-1.3-2.1-1.3-3.5c0-1.7,0.6-3.1,1.9-4.2c1.3-1,2.8-1.6,4.7-1.6c2.6,0,4.7,1,6.3,3
			c0.3,0.3,0.3,0.6,0,1l-0.5,0.6c-0.3,0.4-0.7,0.4-1.1,0c-1.3-1.5-2.9-2.2-4.6-2.2c-1.1,0-2.1,0.3-2.9,0.9c-0.8,0.6-1.2,1.4-1.2,2.5
			c0,1.1,0.3,1.9,1,2.4c0.6,0.6,1.7,1.1,3.1,1.7l2,0.9c1.6,0.7,2.9,1.5,3.8,2.4c0.9,0.9,1.4,2.2,1.4,3.8c0,2-0.7,3.5-2.1,4.6
			C635.3,900,633.5,900.6,631.5,900.6z"/>
		<path class="st1" d="M662.1,900.6c-2.5,0-4.4-0.8-5.9-2.3c-1.4-1.6-2.2-3.8-2.2-6.7v-13c0-0.4,0.2-0.6,0.5-0.6h1.6
			c0.4,0,0.6,0.2,0.6,0.6v12.9c0,2,0.5,3.6,1.6,4.8c1,1.2,2.5,1.7,4.4,1.7c1.9,0,3.6-0.6,4.9-1.8c1.3-1.2,1.9-2.8,1.9-4.7v-12.9
			c0-0.4,0.2-0.6,0.5-0.6h1.6c0.4,0,0.6,0.2,0.6,0.6v20.8c0,0.4-0.2,0.6-0.6,0.6h-1.4c-0.4,0-0.6-0.2-0.6-0.7l-0.1-2.9
			C668,899.2,665.6,900.6,662.1,900.6z"/>
		<path class="st1" d="M679.9,900.1c-0.4,0-0.5-0.2-0.5-0.6v-20.8c0-0.4,0.2-0.6,0.5-0.6h1.4c0.4,0,0.6,0.2,0.6,0.7l0.1,2.9
			c1.5-2.7,4-4.1,7.4-4.1c2.5,0,4.4,0.8,5.9,2.3c1.5,1.5,2.2,3.8,2.2,6.6v13c0,0.4-0.2,0.6-0.6,0.6h-1.6c-0.4,0-0.5-0.2-0.5-0.6
			v-12.9c0-2-0.5-3.6-1.6-4.8c-1.1-1.2-2.5-1.8-4.4-1.8c-2,0-3.6,0.6-4.8,1.8c-1.3,1.2-1.9,2.8-1.9,4.8v12.9c0,0.4-0.2,0.6-0.6,0.6
			H679.9z"/>
		<path class="st1" d="M714.2,900.1c-0.4,0-0.5-0.2-0.5-0.6v-20.8c0-0.4,0.2-0.6,0.5-0.6h1.4c0.4,0,0.6,0.2,0.6,0.7l0.1,2.6
			c1.3-2.5,3.3-3.8,6.3-3.8c3.3,0,5.4,1.5,6.5,4.4c1.3-2.9,3.7-4.4,7-4.4c2.3,0,4,0.7,5.3,2.2c1.3,1.5,1.9,3.6,1.9,6.5v13.2
			c0,0.4-0.2,0.6-0.5,0.6h-1.6c-0.4,0-0.6-0.2-0.6-0.6v-13.1c0-4.3-1.7-6.4-5-6.4c-1.7,0-3.1,0.6-4.2,1.7c-1.1,1.2-1.6,2.7-1.6,4.7
			v13.1c0,0.4-0.2,0.6-0.5,0.6h-1.6c-0.4,0-0.5-0.2-0.5-0.6v-13.1c0-2-0.5-3.6-1.4-4.7c-0.9-1.1-2.2-1.7-3.8-1.7
			c-1.7,0-3.1,0.6-4.1,1.7c-1,1.1-1.5,2.7-1.5,4.7v13.1c0,0.4-0.2,0.6-0.6,0.6H714.2z"/>
		<path class="st1" d="M760.2,900.6c-3.2,0-5.8-1.1-7.9-3.3c-2-2.2-3.1-4.9-3.1-8.3s1-6.1,3.1-8.3c2-2.2,4.7-3.3,7.9-3.3
			c2,0,3.7,0.4,5.2,1.3c1.5,0.9,2.6,2.1,3.5,3.7l0.1-3.9c0-0.4,0.2-0.6,0.6-0.6h1.4c0.4,0,0.6,0.2,0.6,0.6v20.8
			c0,0.4-0.2,0.6-0.6,0.6h-1.4c-0.4,0-0.6-0.2-0.6-0.6l-0.1-3.8C767.1,898.9,764.2,900.6,760.2,900.6z M760.5,898
			c2.5,0,4.5-0.8,6.1-2.5c1.6-1.6,2.3-3.8,2.3-6.5c0-2.7-0.8-4.9-2.3-6.6c-1.6-1.7-3.6-2.5-6.1-2.5c-2.5,0-4.6,0.8-6.2,2.5
			s-2.4,3.8-2.4,6.5c0,2.7,0.8,4.8,2.4,6.5C755.8,897.2,757.9,898,760.5,898z"/>
		<path class="st1" d="M780,872c-0.5,0-0.9-0.2-1.3-0.5c-0.3-0.4-0.5-0.8-0.5-1.3c0-0.5,0.2-0.9,0.5-1.3c0.3-0.4,0.8-0.5,1.3-0.5
			c0.5,0,0.9,0.2,1.2,0.5c0.3,0.3,0.5,0.8,0.5,1.3c0,0.5-0.2,0.9-0.5,1.3C780.8,871.8,780.4,872,780,872z M779.1,900.1
			c-0.4,0-0.5-0.2-0.5-0.6v-20.8c0-0.4,0.2-0.6,0.5-0.6h1.6c0.4,0,0.5,0.2,0.5,0.6v20.8c0,0.4-0.2,0.6-0.5,0.6H779.1z"/>
		<path class="st1" d="M788.9,900.1c-0.4,0-0.5-0.2-0.5-0.6v-30.9c0-0.4,0.2-0.6,0.5-0.6h1.6c0.4,0,0.6,0.2,0.6,0.6v30.9
			c0,0.4-0.2,0.6-0.6,0.6H788.9z"/>
		<path class="st1" d="M386,952.6c-3.2,0-5.8-1.1-7.9-3.3c-2-2.2-3.1-4.9-3.1-8.3s1-6.1,3.1-8.3c2-2.2,4.7-3.3,7.9-3.3
			c1.9,0,3.7,0.4,5.2,1.3c1.5,0.9,2.7,2.1,3.5,3.7v-13.9c0-0.4,0.2-0.6,0.5-0.6h1.6c0.4,0,0.6,0.2,0.6,0.6v30.9
			c0,0.4-0.2,0.6-0.6,0.6h-1.4c-0.4,0-0.6-0.2-0.6-0.6l-0.1-3.8C392.9,950.9,390,952.6,386,952.6z M386.3,950c2.5,0,4.5-0.8,6.1-2.5
			c1.6-1.6,2.3-3.8,2.3-6.5c0-2.7-0.8-4.9-2.3-6.6c-1.6-1.7-3.6-2.5-6.1-2.5c-2.5,0-4.6,0.8-6.2,2.5c-1.6,1.7-2.4,3.8-2.4,6.5
			c0,2.7,0.8,4.8,2.4,6.5S383.8,950,386.3,950z"/>
		<path class="st1" d="M414.9,952.6c-3.5,0-6.3-1.1-8.4-3.4c-2.1-2.2-3.2-5-3.2-8.3c0-3.3,1-6,3.1-8.2c2.1-2.2,4.7-3.3,7.9-3.3
			c3.1,0,5.6,1,7.5,3.1c1.9,2.1,2.8,4.5,2.8,7.3c0,0.8-0.1,1.4-0.3,1.7c-0.2,0.3-0.6,0.4-1.2,0.4h-17.2c0.2,2.4,1.1,4.4,2.7,6
			c1.6,1.5,3.8,2.3,6.5,2.3c2.4,0,4.6-0.7,6.6-2.2c0.2-0.2,0.5-0.2,0.6,0l0.6,0.8c0.2,0.3,0.1,0.6-0.2,0.9
			C420.8,951.7,418.2,952.6,414.9,952.6z M406,939.8h16.2c-0.1-2.3-0.8-4.2-2.2-5.7c-1.4-1.5-3.3-2.2-5.7-2.2
			c-2.3,0-4.3,0.7-5.8,2.1C407,935.5,406.2,937.4,406,939.8z"/>
		<path class="st1" d="M449.9,952.6c-3.2,0-6-1.1-8.1-3.3c-2.2-2.2-3.3-5-3.3-8.3c0-3.3,1.1-6.1,3.3-8.3c2.2-2.2,4.9-3.3,8.2-3.3
			c3.4,0,6.2,1.2,8.2,3.6c0.3,0.4,0.3,0.7,0.1,0.9l-0.9,0.8c-0.3,0.4-0.7,0.3-1,0c-1.7-1.8-3.8-2.7-6.3-2.7c-2.6,0-4.7,0.8-6.4,2.5
			c-1.7,1.7-2.5,3.9-2.5,6.5c0,2.6,0.8,4.8,2.5,6.5c1.7,1.7,3.8,2.5,6.4,2.5c2.5,0,4.6-0.9,6.3-2.7c0.4-0.4,0.7-0.5,1.1-0.1l0.9,0.9
			c0.2,0.2,0.2,0.5-0.1,0.9C456.2,951.4,453.4,952.6,449.9,952.6z"/>
		<path class="st1" d="M473.6,952.6c-3.2,0-5.9-1.1-8-3.3c-2.1-2.2-3.2-5-3.2-8.2c0-3.3,1.1-6,3.2-8.2c2.1-2.2,4.8-3.3,8-3.3
			c3.2,0,5.8,1.1,8,3.3c2.1,2.2,3.2,5,3.2,8.3c0,3.3-1.1,6.1-3.2,8.3C479.5,951.5,476.8,952.6,473.6,952.6z M473.6,950
			c2.5,0,4.5-0.8,6.1-2.5c1.6-1.7,2.5-3.8,2.5-6.5s-0.8-4.8-2.5-6.5c-1.6-1.7-3.7-2.6-6.1-2.6c-2.5,0-4.5,0.8-6.2,2.5
			c-1.6,1.7-2.4,3.9-2.4,6.5c0,2.6,0.8,4.8,2.4,6.5C469.1,949.2,471.2,950,473.6,950z"/>
		<path class="st1" d="M491.4,952.1c-0.4,0-0.5-0.2-0.5-0.6v-20.8c0-0.4,0.2-0.6,0.5-0.6h1.4c0.4,0,0.6,0.2,0.6,0.7l0.1,2.9
			c1.5-2.7,4-4.1,7.4-4.1c2.5,0,4.4,0.8,5.9,2.3c1.5,1.5,2.2,3.8,2.2,6.6v13c0,0.4-0.2,0.6-0.6,0.6h-1.6c-0.4,0-0.5-0.2-0.5-0.6
			v-12.9c0-2-0.5-3.6-1.6-4.8c-1.1-1.2-2.5-1.8-4.4-1.8c-2,0-3.6,0.6-4.8,1.8c-1.3,1.2-1.9,2.8-1.9,4.8v12.9c0,0.4-0.2,0.6-0.6,0.6
			H491.4z"/>
		<path class="st1" d="M517.7,952.1c-0.4,0-0.5-0.2-0.5-0.6v-19.1h-2.7c-0.4,0-0.6-0.2-0.6-0.6v-1c0-0.4,0.2-0.6,0.6-0.6h2.7v-5.3
			c0-3.7,1.8-5.6,5.4-5.6c0.8,0,1.5,0.1,1.9,0.3c0.3,0.1,0.4,0.3,0.4,0.6v1.5c0,0.3-0.2,0.4-0.5,0.3c-0.5-0.1-1-0.1-1.5-0.1
			c-1.2,0-2,0.3-2.4,1c-0.4,0.6-0.6,1.6-0.6,2.8v4.6h4.5c0.4,0,0.6,0.2,0.6,0.6v1c0,0.4-0.2,0.6-0.6,0.6h-4.5v19.1
			c0,0.4-0.2,0.6-0.6,0.6H517.7z"/>
		<path class="st1" d="M532,924c-0.5,0-0.9-0.2-1.3-0.5c-0.3-0.4-0.5-0.8-0.5-1.3c0-0.5,0.2-0.9,0.5-1.3c0.3-0.4,0.8-0.5,1.3-0.5
			c0.5,0,0.9,0.2,1.2,0.5c0.3,0.3,0.5,0.8,0.5,1.3c0,0.5-0.2,0.9-0.5,1.3C532.9,923.8,532.4,924,532,924z M531.2,952.1
			c-0.4,0-0.5-0.2-0.5-0.6v-20.8c0-0.4,0.2-0.6,0.5-0.6h1.6c0.4,0,0.5,0.2,0.5,0.6v20.8c0,0.4-0.2,0.6-0.5,0.6H531.2z"/>
		<path class="st1" d="M540.9,952.1c-0.4,0-0.5-0.2-0.5-0.6v-20.8c0-0.4,0.2-0.6,0.5-0.6h1.4c0.4,0,0.6,0.2,0.6,0.7l0.1,2.4
			c1-2.4,2.7-3.6,5.1-3.6c1,0,1.6,0.1,2,0.4c0.2,0.2,0.4,0.4,0.4,0.8v1.1c0,0.4-0.3,0.6-0.8,0.4c-0.4-0.1-0.9-0.2-1.6-0.2
			c-1.3,0-2.3,0.4-3.1,1.1c-0.8,0.7-1.3,1.5-1.6,2.4c-0.3,0.8-0.4,1.7-0.4,2.7v13.3c0,0.4-0.2,0.6-0.6,0.6H540.9z"/>
		<path class="st1" d="M556.6,952.1c-0.4,0-0.5-0.2-0.5-0.6v-20.8c0-0.4,0.2-0.6,0.5-0.6h1.4c0.4,0,0.6,0.2,0.6,0.7l0.1,2.6
			c1.3-2.5,3.3-3.8,6.3-3.8c3.3,0,5.4,1.5,6.5,4.4c1.3-2.9,3.7-4.4,7-4.4c2.3,0,4.1,0.7,5.3,2.2c1.3,1.5,1.9,3.6,1.9,6.5v13.2
			c0,0.4-0.2,0.6-0.5,0.6h-1.6c-0.4,0-0.6-0.2-0.6-0.6v-13.1c0-4.3-1.7-6.4-5-6.4c-1.7,0-3.1,0.6-4.2,1.7c-1.1,1.2-1.6,2.7-1.6,4.7
			v13.1c0,0.4-0.2,0.6-0.5,0.6H570c-0.4,0-0.5-0.2-0.5-0.6v-13.1c0-2-0.5-3.6-1.4-4.7c-0.9-1.1-2.2-1.7-3.8-1.7
			c-1.7,0-3.1,0.6-4.1,1.7c-1,1.1-1.5,2.7-1.5,4.7v13.1c0,0.4-0.2,0.6-0.6,0.6H556.6z"/>
		<path class="st1" d="M602.6,952.6c-3.2,0-5.8-1.1-7.9-3.3c-2-2.2-3.1-4.9-3.1-8.3s1-6.1,3.1-8.3c2-2.2,4.7-3.3,7.9-3.3
			c2,0,3.7,0.4,5.2,1.3c1.5,0.9,2.6,2.1,3.5,3.7l0.1-3.9c0-0.4,0.2-0.6,0.6-0.6h1.4c0.4,0,0.6,0.2,0.6,0.6v20.8
			c0,0.4-0.2,0.6-0.6,0.6h-1.4c-0.4,0-0.6-0.2-0.6-0.6l-0.1-3.8C609.5,950.9,606.6,952.6,602.6,952.6z M602.9,950
			c2.5,0,4.5-0.8,6.1-2.5c1.6-1.6,2.3-3.8,2.3-6.5c0-2.7-0.8-4.9-2.3-6.6c-1.6-1.7-3.6-2.5-6.1-2.5c-2.5,0-4.6,0.8-6.2,2.5
			c-1.6,1.7-2.4,3.8-2.4,6.5c0,2.7,0.8,4.8,2.4,6.5C598.3,949.2,600.3,950,602.9,950z"/>
		<path class="st1" d="M631.3,952.6c-3.2,0-6-1.1-8.1-3.3c-2.2-2.2-3.3-5-3.3-8.3c0-3.3,1.1-6.1,3.3-8.3c2.2-2.2,4.9-3.3,8.2-3.3
			c3.4,0,6.2,1.2,8.2,3.6c0.3,0.4,0.3,0.7,0.1,0.9l-0.9,0.8c-0.3,0.4-0.7,0.3-1,0c-1.7-1.8-3.8-2.7-6.3-2.7c-2.6,0-4.7,0.8-6.4,2.5
			c-1.7,1.7-2.5,3.9-2.5,6.5c0,2.6,0.8,4.8,2.5,6.5c1.7,1.7,3.8,2.5,6.4,2.5c2.5,0,4.6-0.9,6.3-2.7c0.4-0.4,0.8-0.5,1.1-0.1l0.9,0.9
			c0.2,0.2,0.2,0.5-0.1,0.9C637.6,951.4,634.8,952.6,631.3,952.6z"/>
		<path class="st1" d="M647.2,924c-0.5,0-0.9-0.2-1.3-0.5c-0.3-0.4-0.5-0.8-0.5-1.3c0-0.5,0.2-0.9,0.5-1.3c0.3-0.4,0.8-0.5,1.3-0.5
			c0.5,0,0.9,0.2,1.2,0.5c0.3,0.3,0.5,0.8,0.5,1.3c0,0.5-0.2,0.9-0.5,1.3C648.1,923.8,647.6,924,647.2,924z M646.4,952.1
			c-0.4,0-0.5-0.2-0.5-0.6v-20.8c0-0.4,0.2-0.6,0.5-0.6h1.6c0.4,0,0.5,0.2,0.5,0.6v20.8c0,0.4-0.2,0.6-0.5,0.6H646.4z"/>
		<path class="st1" d="M665.7,952.6c-3.2,0-5.9-1.1-8-3.3c-2.1-2.2-3.2-5-3.2-8.2c0-3.3,1.1-6,3.2-8.2c2.1-2.2,4.8-3.3,8-3.3
			c3.2,0,5.8,1.1,8,3.3c2.1,2.2,3.2,5,3.2,8.3c0,3.3-1.1,6.1-3.2,8.3C671.5,951.5,668.9,952.6,665.7,952.6z M665.7,950
			c2.5,0,4.5-0.8,6.1-2.5c1.6-1.7,2.5-3.8,2.5-6.5s-0.8-4.8-2.5-6.5s-3.7-2.6-6.1-2.6c-2.5,0-4.5,0.8-6.2,2.5
			c-1.6,1.7-2.4,3.9-2.4,6.5c0,2.6,0.8,4.8,2.4,6.5C661.2,949.2,663.2,950,665.7,950z M665.1,927c-0.5,0-0.6-0.2-0.4-0.7l2.4-5.2
			c0.1-0.4,0.4-0.5,0.7-0.5h1.6c0.5,0,0.6,0.2,0.4,0.7l-2.4,5.2c-0.1,0.4-0.3,0.5-0.7,0.5H665.1z"/>
		<path class="st1" d="M683.4,952.1c-0.4,0-0.5-0.2-0.5-0.6v-20.8c0-0.4,0.2-0.6,0.5-0.6h1.4c0.4,0,0.6,0.2,0.6,0.7l0.1,2.9
			c1.5-2.7,4-4.1,7.4-4.1c2.5,0,4.4,0.8,5.9,2.3c1.5,1.5,2.2,3.8,2.2,6.6v13c0,0.4-0.2,0.6-0.6,0.6h-1.6c-0.4,0-0.5-0.2-0.5-0.6
			v-12.9c0-2-0.5-3.6-1.6-4.8c-1.1-1.2-2.5-1.8-4.4-1.8c-2,0-3.6,0.6-4.8,1.8c-1.3,1.2-1.9,2.8-1.9,4.8v12.9c0,0.4-0.2,0.6-0.6,0.6
			H683.4z"/>
	</g>
	<g>
		<path class="st0" d="M290.7,719.6c0.8,1.3,0.4,1.9-1.1,1.9h-7.3c-0.8,0-1.5-0.4-1.9-1.1l-17.1-26.3h-10.1V720c0,1-0.5,1.5-1.5,1.5
			H245c-1.1,0-1.6-0.5-1.6-1.5v-70.7c0-1,0.5-1.5,1.6-1.5h20.6c7.9,0,14,2.1,18.3,6.3c4.3,4.2,6.4,9.8,6.4,16.8
			c0,5.8-1.5,10.6-4.4,14.5c-2.9,3.9-7.2,6.5-12.7,7.8L290.7,719.6z M253.3,656.6v28.8H265c4.8,0,8.6-1.1,11.5-3.4
			c2.9-2.3,4.3-5.9,4.3-11s-1.4-8.7-4.3-11c-2.9-2.3-6.7-3.4-11.5-3.4H253.3z"/>
		<path class="st0" d="M324.9,721.5c-1.1,0-1.6-0.5-1.6-1.5v-70.7c0-1,0.5-1.5,1.6-1.5h35.8c1.1,0,1.6,0.5,1.6,1.5v5.8
			c0,1-0.5,1.5-1.6,1.5h-27.5v22.7h26.1c1,0,1.5,0.5,1.5,1.5v5.8c0,1-0.5,1.5-1.5,1.5h-26.1v24.6h27.6c1,0,1.5,0.5,1.5,1.6v5.8
			c0,1-0.5,1.5-1.5,1.5H324.9z"/>
		<path class="st0" d="M429.9,722.8c-10.8,0-19.8-3.6-27-10.9c-7.2-7.3-10.8-16.3-10.8-27c0-10.7,3.6-19.7,10.8-27
			c7.2-7.3,16.2-10.9,26.9-10.9c9.8,0,18.2,3.3,25,10c0.8,0.7,0.8,1.4,0.2,2.1l-4.3,4.7c-0.6,0.7-1.3,0.7-1.9,0.1
			c-5.7-4.9-12-7.4-19-7.4c-7.9,0-14.5,2.7-19.8,8.1c-5.3,5.4-7.9,12.2-7.9,20.3c0,8.1,2.7,14.9,8,20.2c5.3,5.4,12,8,20.1,8
			c7.2,0,13-2.1,17.4-6.3c4.5-4.2,6.7-9.5,6.9-15.9h-23.6c-1,0-1.5-0.5-1.5-1.5v-5.9c0-1,0.5-1.5,1.5-1.5h31.5
			c1.1,0,1.6,0.5,1.6,1.6v4.3c0,10-3.1,18.2-9.3,24.8C448.4,719.5,440.2,722.8,429.9,722.8z"/>
		<path class="st0" d="M497.7,721.5c-1.1,0-1.6-0.5-1.6-1.5v-70.7c0-1,0.5-1.5,1.6-1.5h6.8c1,0,1.5,0.5,1.5,1.5V720
			c0,1-0.5,1.5-1.5,1.5H497.7z"/>
		<path class="st0" d="M561.4,722.7c-9.8,0-17.3-3.7-22.4-11c-0.5-0.8-0.4-1.5,0.2-2.3l3.5-4c0.7-0.8,1.5-0.8,2.4,0.1
			c4.4,5.5,9.8,8.2,16.2,8.2c4.3,0,7.6-1,10.1-3.1c2.5-2.1,3.7-4.9,3.7-8.4c0-3.2-1-5.8-2.9-7.6c-2-1.9-5-3.8-9.2-5.7l-8.9-4.3
			c-9-4.1-13.5-10.3-13.5-18.5c0-5.8,2-10.4,6-13.9c4-3.4,9-5.2,15-5.2c8.1,0,14.8,3.2,20.1,9.5c0.7,0.7,0.7,1.5,0.1,2.4l-3.4,3.9
			c-0.7,1-1.5,1-2.4,0.1c-4.3-4.6-9-6.8-14.1-6.8c-3.5,0-6.3,0.9-8.5,2.6c-2.2,1.8-3.3,4.2-3.3,7.3c0,2.5,0.7,4.6,2.2,6.3
			c1.5,1.6,3.9,3.3,7.2,4.9l8.3,4c2.5,1.2,4.6,2.3,6.3,3.4c1.7,1.1,3.4,2.5,5.2,4.1c1.8,1.6,3.1,3.6,4,5.9c0.9,2.3,1.3,4.9,1.3,7.7
			c0,6.4-2.2,11.4-6.6,15C573.7,720.9,568.1,722.7,561.4,722.7z"/>
		<path class="st0" d="M630.3,721.5c-1,0-1.5-0.5-1.5-1.5v-63.4h-15.4c-1.1,0-1.6-0.5-1.6-1.5v-5.8c0-1,0.5-1.5,1.6-1.5h40.5
			c1,0,1.5,0.5,1.5,1.5v5.8c0,1-0.5,1.5-1.5,1.5h-15.4V720c0,1-0.5,1.5-1.5,1.5H630.3z"/>
		<path class="st0" d="M736.2,719.6c0.8,1.3,0.4,1.9-1.1,1.9h-7.3c-0.8,0-1.5-0.4-1.9-1.1l-17.1-26.3h-10.1V720c0,1-0.5,1.5-1.5,1.5
			h-6.8c-1.1,0-1.6-0.5-1.6-1.5v-70.7c0-1,0.5-1.5,1.6-1.5h20.6c7.9,0,14,2.1,18.3,6.3c4.3,4.2,6.4,9.8,6.4,16.8
			c0,5.8-1.5,10.6-4.4,14.5c-2.9,3.9-7.2,6.5-12.7,7.8L736.2,719.6z M698.7,656.6v28.8h11.7c4.8,0,8.6-1.1,11.5-3.4
			c2.9-2.3,4.3-5.9,4.3-11s-1.4-8.7-4.3-11c-2.9-2.3-6.7-3.4-11.5-3.4H698.7z"/>
		<path class="st0" d="M802.4,722.8c-10.6,0-19.5-3.7-26.8-11c-7.3-7.3-10.9-16.3-10.9-26.9c0-10.7,3.6-19.7,10.9-27
			c7.3-7.3,16.2-11,26.8-11c10.5,0,19.4,3.7,26.7,11c7.3,7.3,10.9,16.3,10.9,27c0,10.6-3.6,19.5-10.9,26.9
			C821.8,719.2,812.9,722.8,802.4,722.8z M782.5,705.2c5.3,5.4,11.9,8.1,19.8,8.1c7.9,0,14.5-2.7,19.8-8.1
			c5.3-5.4,7.9-12.1,7.9-20.2c0-8.1-2.6-14.8-7.9-20.2c-5.3-5.4-11.9-8.2-19.8-8.2c-7.9,0-14.5,2.7-19.8,8.2
			c-5.3,5.4-7.9,12.2-7.9,20.2C774.6,693,777.2,699.8,782.5,705.2z"/>
	</g>
	<g>
		<path class="st1" d="M346.3,595.4c-3.9,4.1-9.2,6.6-15.5,6.6c-13,0-20.1-11.2-20.1-24.9c0-17.3,14.3-34.9,29.2-34.9
			c6.5,0,9.9,3,12,5.2l2.5-4.5h1.6l0.7,18.7l-1.5,0.3c-5.8-13.4-8.4-16.5-15-16.5c-8.7,0-17.2,6-21.6,26.5c-0.9,4-1.3,7.5-1.3,10.5
			c0,11.2,5.5,16.3,14.5,16.3c4.9,0,8.7-1.5,12.2-4.4l3.2-15.3l-7.4-1.4l0.5-2.3h20.6l-0.5,2.3l-6.5,1.4l-4.7,22.3h-1.9L346.3,595.4
			z"/>
		<path class="st1" d="M373.4,565.5l-9.3,10.2l-1-0.9c7.3-10.9,11.6-14.6,13.8-14.6c1.8,0,2.8,1.3,2.8,3.7c0,0.9-0.1,1.8-0.3,2.9
			l-0.9,3.7l-6.3,15.6l0.3,0.1c9.6-20.5,13.9-25.8,19.1-25.8c3.3,0,5.4,2,5.4,4.8s-1.9,4.8-4.2,4.8c-2.8,0-4-1.8-4-4
			c0-0.6,0.2-1.2,0.2-1.2l-0.1-0.1c-2.7,1.2-9.4,10.6-15,22.6l-3.7,13.9h-6.2L373.4,565.5z"/>
		<path class="st1" d="M393.3,594.8c0-13.8,12.6-34.5,23.3-34.5c3.1,0,4.9,1.4,6.2,3.7l0.9-3.2h6.4l-9.2,35.4l9.2-10.3l0.9,0.9
			c-7.1,11.3-10.6,15.2-13.9,15.2c-2,0-3-1.6-2.3-5.1l1.1-5.4l5.7-15.2l-0.2-0.1c-8.2,15.5-15.3,25.8-21.9,25.8
			C395.6,602,393.3,599.2,393.3,594.8z M419.4,576.4l2.5-9.4c-1.1-2.6-2.7-4.1-5.7-4.1c-5.5,0-11.1,6.7-15,23.1
			c-0.9,4.1-1.4,6.8-1.4,8.6c0,2.4,0.8,3.1,1.9,3.1C404.2,597.6,409.2,594,419.4,576.4z"/>
		<path class="st1" d="M434.5,590.7c0-13.2,9.5-30.4,23.3-30.4c4.4,0,8.6,2.3,8.6,7.1c0,2.7-2,5.1-4.7,5.1c-2.5,0-4.3-1.8-4.3-4.2
			c0-2.2,1.4-4.2,3.5-4.8v-0.2c-0.7-0.3-1.5-0.4-2.8-0.4c-5.7,0-11.8,4.1-15.4,17.8c-1.1,4.3-1.6,7.7-1.6,10.3c0,4.9,1.8,7.1,5,7.1
			c4.4,0,8.8-4,14-11.3l1.4,0.9c-3.7,6.5-9.2,14.3-17.2,14.3C438.2,602,434.5,597.4,434.5,590.7z"/>
		<path class="st1" d="M470.3,599.2c0-1,0.2-2.4,0.6-4l7.8-29.7l-9.3,10.2l-1-0.9c7.3-10.9,11.3-14.6,14.4-14.6
			c1.4,0,2.8,0.6,2.8,3.1c0,0.8-0.2,1.7-0.5,2.8l-8.7,30.3l8.7-8.8l0.9,0.9c-7.7,11.1-10.2,13.6-13.7,13.6
			C470.9,602,470.3,601.1,470.3,599.2z M481.1,546.7c0-2.6,2.2-4.8,4.7-4.8c2.5,0,4.6,2.3,4.6,4.8s-2.2,4.8-4.7,4.8
			C483.2,551.6,481.1,549.3,481.1,546.7z"/>
		<path class="st1" d="M490.9,594.8c0-13.8,12.6-34.5,23.3-34.5c3.1,0,4.9,1.4,6.2,3.7l0.9-3.2h6.4l-9.2,35.4l9.2-10.3l0.9,0.9
			c-7.1,11.3-10.6,15.2-13.9,15.2c-2,0-3-1.6-2.3-5.1l1.1-5.4l5.7-15.2l-0.2-0.1c-8.2,15.5-15.3,25.8-21.9,25.8
			C493.2,602,490.9,599.2,490.9,594.8z M517,576.4l2.5-9.4c-1.1-2.6-2.7-4.1-5.7-4.1c-5.5,0-11.1,6.7-15,23.1
			c-0.9,4.1-1.4,6.8-1.4,8.6c0,2.4,0.8,3.1,1.9,3.1C501.9,597.6,506.8,594,517,576.4z"/>
		<path class="st1" d="M529.5,593.5c0-2.9,1.9-5.1,4.4-5.1c2.2,0,4,1.7,4,3.8c0,2.2-1.4,4.1-4.3,4.5v0.2c1.1,1,3.4,2.3,7.5,2.3
			c5.4,0,7.9-2.4,7.9-6c0-7.8-12.4-11.5-12.4-21.8c0-6,4.6-11.1,12-11.1c5,0,9.8,2.4,9.8,7.1c0,2.9-1.8,5-4.2,5
			c-2.1,0-3.7-1.6-3.7-3.8c0-1.9,1-3.7,3.9-4.1v-0.2c-0.6-0.4-2.1-1.4-5.7-1.4c-4.3,0-7,2.4-7,6.2c0,7.4,12.7,11.9,12.7,21.7
			c0,7.1-5.1,11.1-13.1,11.1C534.7,602,529.5,598.4,529.5,593.5z"/>
		<path class="st1" d="M596.7,552.6l-2.1,8.4c1.7-0.5,3.3-0.8,4.9-0.8c8,0,13.1,5.2,13.1,14.2c0,16.1-13,28-28.3,27.1l-3.2,12.8h7.2
			l-0.6,2.2h-20.2l0.7-2.2h6.5l12.1-46.1c-2.4,1.8-5,4.2-8.3,7.4l-1-0.9c3.7-4.6,7.1-8,10.4-10.3l3.1-12H596.7z M593.8,564.2
			l-8.9,35.2c10.1-0.8,16.6-4.1,20-17c1.2-4.4,1.8-8.1,1.8-10.9c0-5.6-2.5-8.1-7.7-8.1C597.1,563.5,595.4,563.7,593.8,564.2z"/>
		<path class="st1" d="M617.9,588.1c0-13.6,10.9-27.9,21.4-27.9c7.8,0,12.1,6,12.1,13.9c0,13.6-10.7,27.8-21.3,27.8
			C622.1,602,617.9,596.1,617.9,588.1z M643.7,580.5c1.2-4.5,1.8-7.9,1.8-10.5c0-5.1-2.1-7-6-7c-5.7,0-9.7,3.8-13.8,18.8
			c-1.2,4.4-1.8,7.8-1.8,10.5c0,5.2,2.3,7.1,6.1,7.1C635.7,599.3,639.7,595.4,643.7,580.5z"/>
		<path class="st1" d="M666.8,565.5l-9.3,10.2l-1-0.9c7.3-10.9,11.6-14.6,13.8-14.6c1.8,0,2.8,1.3,2.8,3.7c0,0.9-0.1,1.8-0.3,2.9
			l-0.9,3.7l-6.3,15.6l0.3,0.1c9.6-20.5,13.9-25.8,19.1-25.8c3.3,0,5.4,2,5.4,4.8s-1.9,4.8-4.3,4.8c-2.8,0-4-1.8-4-4
			c0-0.6,0.2-1.2,0.2-1.2l-0.1-0.1c-2.7,1.2-9.4,10.6-15,22.6l-3.7,13.9h-6.2L666.8,565.5z"/>
		<path class="st1" d="M707.8,563.3l7-1.4l3-11.5h6.1l-3,11.2h8.8l-0.9,2.9h-8.8l-8.8,33.7l10.5-10.6l0.9,0.9
			c-7.7,11.1-10.7,13.6-14.4,13.6c-1.7,0-2.6-0.9-2.6-3.2c0-1.1,0.2-2.6,0.7-4.3l7.7-29.9h-6.6L707.8,563.3z"/>
		<path class="st1" d="M732.1,594.9c0-1.8,0.3-3.8,0.9-6.4l6.3-23.2l-9.3,10.4l-1-0.9c7.3-10.9,11.6-14.6,14.1-14.6
			c1.4,0,2.4,0.8,2.4,3.1c0,1.3-0.3,3-0.9,5.3l-6.4,23c-0.4,1.4-0.6,2.6-0.6,3.5c0,1.8,0.8,2.6,2.1,2.6c2.6,0,7.5-3.8,16.9-21
			l4.3-15.2h6.2l-9.9,35.4l9.4-9.5l0.9,0.9c-8.8,12.7-10.8,13.6-13.9,13.6c-1.5,0-2.3-0.9-2.3-2.9c0-0.9,0.2-2.2,0.5-3.7l0.9-3.7
			l5.6-13.9l-0.3-0.1c-7.4,14.5-13.5,24.3-20.1,24.3C734.4,602,732.1,599.9,732.1,594.9z"/>
	</g>
	<g>
		<path class="st1" d="M264.5,1135.4c0.5-0.5,1.1-0.7,1.7-0.7c0.7,0,1.3,0.2,1.7,0.7s0.7,1.1,0.7,1.7c0,0.7-0.2,1.3-0.7,1.7
			c-0.5,0.5-1.1,0.7-1.7,0.7c-0.7,0-1.3-0.2-1.7-0.7c-0.5-0.5-0.7-1.1-0.7-1.7C263.8,1136.4,264,1135.8,264.5,1135.4z M265.3,1143.1
			h1.9c0.4,0,0.6,0.2,0.6,0.6l0.4,19.5c0,0.4-0.2,0.6-0.5,0.6h-2.7c-0.4,0-0.6-0.2-0.6-0.6l0.4-19.5
			C264.7,1143.3,264.9,1143.1,265.3,1143.1z"/>
		<path class="st1" d="M300.6,1155.7c0.2,0.5,0,0.7-0.5,0.7h-2.8c-0.3,0-0.5-0.2-0.7-0.5l-1.9-5.5h-12.5l-1.9,5.5
			c-0.1,0.3-0.3,0.5-0.7,0.5H277c-0.5,0-0.6-0.2-0.4-0.7l9.8-27.4c0.1-0.3,0.4-0.5,0.7-0.5h3c0.4,0,0.7,0.2,0.8,0.5L300.6,1155.7z
			 M283.5,1147.1h10.1l-5.1-14.6L283.5,1147.1z"/>
		<path class="st1" d="M321.2,1156.9c-4.2,0-7.7-1.4-10.5-4.2c-2.8-2.8-4.2-6.3-4.2-10.5c0-4.2,1.4-7.7,4.2-10.5
			c2.8-2.8,6.3-4.2,10.5-4.2c3.8,0,7.1,1.3,9.7,3.9c0.3,0.3,0.3,0.5,0.1,0.8l-1.7,1.8c-0.2,0.3-0.5,0.3-0.7,0
			c-2.2-1.9-4.7-2.9-7.4-2.9c-3.1,0-5.6,1-7.7,3.1c-2.1,2.1-3.1,4.7-3.1,7.9s1,5.8,3.1,7.9c2.1,2.1,4.7,3.1,7.8,3.1
			c2.8,0,5-0.8,6.8-2.4c1.7-1.6,2.6-3.7,2.7-6.2h-9.1c-0.4,0-0.6-0.2-0.6-0.6v-2.3c0-0.4,0.2-0.6,0.6-0.6h12.2
			c0.4,0,0.6,0.2,0.6,0.6v1.7c0,3.9-1.2,7.1-3.6,9.6C328.4,1155.7,325.2,1156.9,321.2,1156.9z"/>
		<path class="st1" d="M343.9,1156.4c-0.4,0-0.6-0.2-0.6-0.6v-27.4c0-0.4,0.2-0.6,0.6-0.6h13.9c0.4,0,0.6,0.2,0.6,0.6v2.2
			c0,0.4-0.2,0.6-0.6,0.6h-10.7v8.8h10.1c0.4,0,0.6,0.2,0.6,0.6v2.2c0,0.4-0.2,0.6-0.6,0.6h-10.1v9.6h10.7c0.4,0,0.6,0.2,0.6,0.6
			v2.2c0,0.4-0.2,0.6-0.6,0.6H343.9z"/>
		<path class="st1" d="M388.5,1127.8c0.4,0,0.6,0.2,0.6,0.6v27.4c0,0.4-0.2,0.6-0.6,0.6h-3.4c-0.3,0-0.6-0.1-0.7-0.4l-12.5-22.4
			v22.3c0,0.4-0.2,0.6-0.6,0.6h-2.7c-0.4,0-0.6-0.2-0.6-0.6v-27.4c0-0.4,0.2-0.6,0.6-0.6h3.3c0.3,0,0.6,0.1,0.7,0.4l12.5,22.5v-22.3
			c0-0.4,0.2-0.6,0.6-0.6H388.5z"/>
		<path class="st1" d="M399.8,1156.4c-0.4,0-0.6-0.2-0.6-0.6v-27.4c0-0.4,0.2-0.6,0.6-0.6h6.8c4.7,0,8.3,1.3,10.8,4
			s3.7,6.1,3.7,10.3s-1.2,7.7-3.7,10.3s-6.1,4-10.8,4H399.8z M403.1,1153h3.5c3.6,0,6.3-0.9,8.1-2.8c1.8-1.9,2.7-4.6,2.7-8
			c0-3.5-0.9-6.2-2.7-8.1c-1.8-1.9-4.5-2.8-8.1-2.8h-3.5V1153z"/>
		<path class="st1" d="M450.4,1155.7c0.2,0.5,0,0.7-0.5,0.7h-2.8c-0.3,0-0.5-0.2-0.7-0.5l-1.9-5.5h-12.5l-1.9,5.5
			c-0.1,0.3-0.3,0.5-0.7,0.5h-2.8c-0.5,0-0.6-0.2-0.4-0.7l9.8-27.4c0.1-0.3,0.4-0.5,0.7-0.5h3c0.4,0,0.7,0.2,0.8,0.5L450.4,1155.7z
			 M433.2,1147.1h10.1l-5.1-14.6L433.2,1147.1z"/>
		<path class="st1" d="M477,1156.4c-0.4,0-0.6-0.2-0.6-0.6v-24.6h-6c-0.4,0-0.6-0.2-0.6-0.6v-2.2c0-0.4,0.2-0.6,0.6-0.6h15.7
			c0.4,0,0.6,0.2,0.6,0.6v2.2c0,0.4-0.2,0.6-0.6,0.6h-6v24.6c0,0.4-0.2,0.6-0.6,0.6H477z"/>
		<path class="st1" d="M505.8,1156.9c-3,0-5.4-0.9-7.2-2.7c-1.8-1.8-2.7-4.3-2.7-7.6v-18.2c0-0.4,0.2-0.6,0.6-0.6h2.7
			c0.4,0,0.6,0.2,0.6,0.6v17.9c0,2.3,0.5,4,1.6,5.1c1.1,1.2,2.6,1.8,4.4,1.8c1.9,0,3.4-0.6,4.5-1.8c1.1-1.2,1.6-2.9,1.6-5.1v-17.9
			c0-0.4,0.2-0.6,0.6-0.6h2.7c0.4,0,0.6,0.2,0.6,0.6v18.2c0,3.3-0.9,5.8-2.7,7.6C511.2,1156,508.8,1156.9,505.8,1156.9z"/>
		<path class="st1" d="M551,1156.9c-4.2,0-7.6-1.4-10.4-4.2c-2.8-2.8-4.2-6.3-4.2-10.5c0-4.2,1.4-7.7,4.2-10.5s6.2-4.2,10.4-4.2
			c3.8,0,7,1.3,9.8,3.8c0.3,0.3,0.3,0.6,0.1,0.9l-1.6,1.8c-0.2,0.3-0.5,0.3-0.9,0c-2.2-1.9-4.6-2.8-7.3-2.8c-3.1,0-5.6,1-7.7,3.1
			c-2,2.1-3.1,4.7-3.1,7.9s1,5.8,3.1,7.9c2,2.1,4.6,3.1,7.7,3.1c2.7,0,5.2-0.9,7.3-2.8c0.3-0.3,0.6-0.3,0.9,0l1.6,1.8
			c0.3,0.3,0.2,0.6-0.1,0.9C558,1155.7,554.7,1156.9,551,1156.9z"/>
		<path class="st1" d="M570.7,1156.4c-0.4,0-0.6-0.2-0.6-0.6v-27.4c0-0.4,0.2-0.6,0.6-0.6h2.7c0.4,0,0.6,0.2,0.6,0.6v27.4
			c0,0.4-0.2,0.6-0.6,0.6H570.7z"/>
		<path class="st1" d="M590.3,1156.4c-0.4,0-0.6-0.2-0.6-0.6v-24.6h-6c-0.4,0-0.6-0.2-0.6-0.6v-2.2c0-0.4,0.2-0.6,0.6-0.6h15.7
			c0.4,0,0.6,0.2,0.6,0.6v2.2c0,0.4-0.2,0.6-0.6,0.6h-6v24.6c0,0.4-0.2,0.6-0.6,0.6H590.3z"/>
		<path class="st1" d="M627.7,1155.7c0.2,0.5,0,0.7-0.5,0.7h-2.8c-0.3,0-0.5-0.2-0.7-0.5l-1.9-5.5h-12.5l-1.9,5.5
			c-0.1,0.3-0.3,0.5-0.7,0.5H604c-0.5,0-0.6-0.2-0.4-0.7l9.8-27.4c0.1-0.3,0.4-0.5,0.7-0.5h3c0.4,0,0.7,0.2,0.8,0.5L627.7,1155.7z
			 M610.6,1147.1h10.1l-5.1-14.6L610.6,1147.1z"/>
		<path class="st1" d="M670.8,1155.7c0.2,0.5,0,0.7-0.5,0.7h-2.8c-0.3,0-0.5-0.2-0.7-0.5l-1.9-5.5h-12.5l-1.9,5.5
			c-0.1,0.3-0.3,0.5-0.7,0.5h-2.8c-0.5,0-0.6-0.2-0.4-0.7l9.8-27.4c0.1-0.3,0.4-0.5,0.7-0.5h3c0.4,0,0.7,0.2,0.8,0.5L670.8,1155.7z
			 M653.6,1147.1h10.1l-5.1-14.6L653.6,1147.1z"/>
		<path class="st1" d="M679.9,1156.4c-0.4,0-0.6-0.2-0.6-0.6v-27.4c0-0.4,0.2-0.6,0.6-0.6h2.7c0.4,0,0.6,0.2,0.6,0.6v12.2h12.7
			v-12.2c0-0.4,0.2-0.6,0.6-0.6h2.7c0.4,0,0.6,0.2,0.6,0.6v27.4c0,0.4-0.2,0.6-0.6,0.6h-2.7c-0.4,0-0.6-0.2-0.6-0.6v-11.9h-12.7
			v11.9c0,0.4-0.2,0.6-0.6,0.6H679.9z"/>
		<path class="st1" d="M723.6,1156.9c-4.1,0-7.6-1.4-10.4-4.3c-2.8-2.8-4.2-6.3-4.2-10.4c0-4.1,1.4-7.6,4.2-10.5
			c2.8-2.8,6.3-4.3,10.4-4.3c4.1,0,7.5,1.4,10.4,4.3c2.8,2.8,4.2,6.3,4.2,10.5c0,4.1-1.4,7.6-4.2,10.4
			C731.1,1155.5,727.7,1156.9,723.6,1156.9z M715.9,1150.1c2.1,2.1,4.6,3.1,7.7,3.1s5.6-1,7.7-3.1c2.1-2.1,3.1-4.7,3.1-7.8
			s-1-5.8-3.1-7.9c-2.1-2.1-4.6-3.2-7.7-3.2s-5.6,1.1-7.7,3.2s-3.1,4.7-3.1,7.9S713.8,1148,715.9,1150.1z"/>
		<path class="st1" d="M765.9,1155.7c0.3,0.5,0.2,0.7-0.4,0.7h-2.8c-0.3,0-0.6-0.1-0.7-0.4l-6.7-10.2h-3.9v10c0,0.4-0.2,0.6-0.6,0.6
			h-2.7c-0.4,0-0.6-0.2-0.6-0.6v-27.4c0-0.4,0.2-0.6,0.6-0.6h8c3.1,0,5.4,0.8,7.1,2.5c1.7,1.6,2.5,3.8,2.5,6.5
			c0,2.2-0.6,4.1-1.7,5.6s-2.8,2.5-4.9,3L765.9,1155.7z M751.4,1131.2v11.2h4.5c1.9,0,3.3-0.4,4.5-1.3c1.1-0.9,1.7-2.3,1.7-4.3
			c0-2-0.6-3.4-1.7-4.3c-1.1-0.9-2.6-1.3-4.5-1.3H751.4z"/>
		<path class="st1" d="M797.2,1155.7c0.2,0.5,0,0.7-0.5,0.7H794c-0.3,0-0.5-0.2-0.7-0.5l-1.9-5.5h-12.5l-1.9,5.5
			c-0.1,0.3-0.3,0.5-0.7,0.5h-2.8c-0.5,0-0.6-0.2-0.4-0.7l9.8-27.4c0.1-0.3,0.4-0.5,0.7-0.5h3c0.4,0,0.7,0.2,0.8,0.5L797.2,1155.7z
			 M780.1,1147.1h10.1l-5.1-14.6L780.1,1147.1z"/>
		<path class="st1" d="M809.3,1156.2c-0.5,0.5-1.1,0.7-1.7,0.7c-0.7,0-1.3-0.2-1.7-0.7c-0.5-0.5-0.7-1.1-0.7-1.7s0.2-1.3,0.7-1.7
			c0.5-0.5,1.1-0.7,1.7-0.7c0.7,0,1.3,0.2,1.7,0.7c0.5,0.5,0.7,1.1,0.7,1.7S809.7,1155.7,809.3,1156.2z M806.6,1148.4
			c-0.4,0-0.5-0.2-0.5-0.6l-0.4-19.4c0-0.4,0.2-0.6,0.6-0.6h2.7c0.4,0,0.5,0.2,0.5,0.6l-0.4,19.4c0,0.4-0.2,0.6-0.6,0.6H806.6z"/>
	</g>
	<g>
		<g>
			<g>
				<path class="st1" d="M462.5,1351.7v-11.4c0,2.6-2.9,5.7-6.1,5.7C459.6,1346,462.5,1349.1,462.5,1351.7z"/>
				<path class="st1" d="M469.5,1356.7c-0.6,2.7-3.8,6-7.2,7.6c-0.8,0.4-1.8,0.6-2.7,0.6h-11c1.7-0.7,2.9-2.4,2.9-4.4v-26.8
					c0-2-1.2-3.6-2.9-4.4h10.4c1.5,0,3,0.5,4.1,1.4c2.2,1.8,3.9,4.5,4.4,6.8v-7.5c0-0.6-0.5-1.2-1.2-1.2h-27.5c0,0,5.5,1.2,5.5,6.1
					v24.3c0,3.2-5.5,6.1-5.5,6.1h29.6c0.6,0,1.2-0.5,1.2-1.2V1356.7z"/>
			</g>
			<g>
				<path class="st1" d="M578.8,1351.7v-11.4c0,2.6-2.9,5.7-6.1,5.7C575.9,1346,578.8,1349.1,578.8,1351.7z"/>
				<path class="st1" d="M585.8,1356.7c-0.6,2.6-3.8,6-7.2,7.6c-0.8,0.4-1.8,0.6-2.7,0.6h-11.1c1.7-0.7,2.9-2.4,2.9-4.4v-26.8
					c0-2-1.2-3.6-2.9-4.4h10.4c1.5,0,2.9,0.5,4.1,1.4c2.2,1.8,3.9,4.6,4.4,6.8v-7.5c0-0.6-0.5-1.2-1.2-1.2H555c0,0,5.5,1.2,5.5,6.1
					v24.3c0,3.2-5.5,6.1-5.5,6.1l6.6,0l23,0c0.6,0,1.2-0.5,1.2-1.2V1356.7z"/>
			</g>
			<path class="st1" d="M438.4,1377.7c-4.3-1.3-6.3-5.3-7.5-7.9c-3.1-6.5-1.2-11.3-3.9-15.6c-1.8-2.8-3.9-3.8-5.1-4.1
				c-0.2,0-0.2-0.3,0-0.4c6.1-1.4,8.7-5.2,8.7-10.2c0-6.9-5.1-10.8-13.4-10.8h-17.4c0,0,5.5,1.2,5.5,6.1v24.3c0,3.2-5.5,6.1-5.5,6.1
				h7.8c2.7,0,4.8-2.2,4.8-4.8v-26.8c0-1.9-1.1-3.6-2.8-4.4l5.2,0c1.7,0,3.6,0.6,4.8,1.8c1.7,1.7,3.5,4.4,3.5,8.6
				c0,6.3-5.4,9.5-6.7,10.2c-0.1,0.1-0.1,0.3,0,0.3c5.7,3.3,3.2,13.1,8,20.9c4.3,7,10.2,6.9,13.8,7.1
				C438.6,1378.1,438.6,1377.8,438.4,1377.7z"/>
			<path class="st1" d="M615.2,1350.2c-0.2,0-0.2-0.3,0-0.3c6.2-1.4,8.8-5.2,8.8-10.2c0-6.2-4.3-10.8-13.7-10.8l-17.1,0
				c0,0,5.5,1.2,5.5,6.1v24.3c0,3.2-5.5,6.1-5.5,6.1h7.8c2.7,0,4.8-2.2,4.8-4.8v-26.8c0-2-1.2-3.6-2.9-4.4l5.2,0
				c1.7,0,3.9,0.6,5.1,1.8c1.8,1.7,3.6,4.5,3.6,8.6c0,6.2-5.4,9.4-6.9,10.2c-0.2,0.1-0.2,0.2,0,0.3c6.8,4.3,2.5,16.4,12.9,16.4
				c3.9,0,5.9-1.9,5.9-1.9C621.1,1365.3,623.7,1351.7,615.2,1350.2z"/>
			<path class="st1" d="M549.4,1328.8l-12.3,0c2.4,1.3,3.7,3.5,3.9,7.3c0.1,0.9-0.1,1.9-0.5,3.2l-6.6,22.3c-0.5,1.4-0.9,2.8-2.3,2.8
				c-1.2,0-1.5-0.8-2.1-3.1l-7.4-25.2c-1.3-4.7-5.5-8-10.5-8h-5.1c0,0,6.2,1.4,7.7,6.6l8.4,26.7c1.4,4.2,4.4,4.4,7.1,4.4
				c3.3,0,3.9-2.3,4.5-4l6.6-22.5c0.3-0.9,0.9-2.2,1.2-3C543.4,1333.8,545.9,1330.4,549.4,1328.8z"/>
			<path class="st1" d="M677.3,1377.8c0,0-6.1-2.4-8.4-10.2l-10.5-34.8c-1.4-4.2-4.4-4.4-7.1-4.4c-3.3,0-3.9,2.3-4.5,4l-6.6,22.5
				c-0.3,0.9-0.9,2.2-1.2,3c-1.1,2.4-3.6,5.8-7.2,7.4l12.3,0c-2.4-1.3-3.7-3.5-3.9-7.3c-0.1-0.9,0.1-1.9,0.5-3.2l6.6-22.3
				c0.6-1.7,1-3,2.3-3c0.5,0,1.3,0.1,1.7,1.7l10.1,34.9c2.3,6.7,8.7,11.8,15.9,11.8C677.3,1377.9,677.3,1377.8,677.3,1377.8z"/>
			<path class="st1" d="M503.9,1356.3c0-12.4-22.4-12.4-22.4-21.3c0-3,3-5.7,8.9-5.7c0.4,0,0.8,0,1.2,0.1c0.9,0.1,1.8,0.6,2.3,1.4
				c1.2,1.8,0.7,4.3,0.7,5c0,2,1.6,3.6,3.6,3.6c1.9,0,3.6-1.6,3.6-3.6c0-6.6-8.2-6.9-11.3-6.9c-9.3,0-11,5.6-11,10.8
				c0.1,11.9,20.7,13,20.7,20.5c0,0.4-0.1,0.9-0.3,1.3c-0.7,1.7-2.2,3-4,3.5c-1.4,0.4-2.9,0.6-4.4,0.6c-1.4,0-2.9-0.2-4.2-0.5
				c-0.9-0.2-1.8-0.7-2.5-1.3c-3.7-3.2-6.4-8.9-6.4-8.9l0.1,10.7c1.4-2.3,4.8-0.5,8.3,0.1c1.6,0.3,3.3,0.5,4.7,0.5
				c4,0,7.3-1.6,7.5-1.7c0,0,0,0,0,0c0,0,0,0,0,0C500.9,1363.3,503.9,1361.1,503.9,1356.3z"/>
		</g>
		<path class="st1" d="M677.2,1362.1c0,1.7-1.4,3.2-3.2,3.2c-1.8,0-3.1-1.4-3.1-3.1c0-1.7,1.4-3.2,3.2-3.2
			C675.9,1358.9,677.2,1360.4,677.2,1362.1z M676.8,1362.1c0-1.5-1.2-2.7-2.8-2.7c-1.6,0-2.8,1.2-2.8,2.7c0,1.5,1.2,2.7,2.7,2.7
			C675.6,1364.8,676.8,1363.6,676.8,1362.1z M674.7,1362.5l0.8,1.1H675l-0.7-1c-0.1,0-0.1,0-0.2,0h-0.9v1h-0.4v-3.3h1.2
			c0.8,0,1.3,0.4,1.3,1.1C675.4,1362,675.2,1362.4,674.7,1362.5z M674.1,1362.3c0.6,0,0.9-0.3,0.9-0.8c0-0.5-0.3-0.8-0.9-0.8h-0.9
			v1.5H674.1z"/>
	</g>
</g>
</svg>
